<svg width="20" height="20" viewBox="0 0 20 20" fill="none" xmlns="http://www.w3.org/2000/svg">
<g id="chat/group">
<g id="Union">
<path d="M12.424 8.125C11.3022 8.125 10.3928 7.21558 10.3928 6.09375C10.3928 4.97192 11.3022 4.0625 12.424 4.0625C13.5458 4.0625 14.4553 4.97192 14.4553 6.09375C14.4553 7.21558 13.5458 8.125 12.424 8.125ZM12.424 9.6875C14.4088 9.6875 16.0178 8.07852 16.0178 6.09375C16.0178 4.10898 14.4088 2.5 12.424 2.5C10.4392 2.5 8.83026 4.10898 8.83026 6.09375C8.83026 8.07852 10.4392 9.6875 12.424 9.6875ZM6.1293 7.13806C6.1293 6.62029 5.70957 6.20056 5.1918 6.20056C4.67404 6.20056 4.2543 6.62029 4.2543 7.13806C4.2543 7.65583 4.67404 8.07556 5.1918 8.07556C5.70957 8.07556 6.1293 7.65583 6.1293 7.13806ZM7.6918 7.13806C7.6918 8.51877 6.57251 9.63806 5.1918 9.63806C3.81109 9.63806 2.6918 8.51877 2.6918 7.13806C2.6918 5.75735 3.81109 4.63806 5.1918 4.63806C6.57251 4.63806 7.6918 5.75735 7.6918 7.13806ZM2.10724 15.3125H4.5723V16.875H1.16974C0.824561 16.875 0.544739 16.5951 0.544739 16.25V13.2934C0.544739 12.8492 0.785477 12.4398 1.17372 12.2239C2.25364 11.6232 3.39855 11.1896 4.5723 10.923V12.5311C3.72487 12.752 2.89721 13.0731 2.10724 13.4946V15.3125ZM7.26776 15.9375H17.5803V14.1099C14.3646 12.3658 10.4834 12.3658 7.26776 14.1099V15.9375ZM5.70526 13.8843C5.70526 13.4605 5.93274 13.0693 6.30108 12.8596C10.0972 10.6992 14.7508 10.6992 18.5469 12.8596C18.9153 13.0693 19.1428 13.4605 19.1428 13.8843V16.875C19.1428 17.2202 18.8629 17.5 18.5178 17.5H6.33026C5.98508 17.5 5.70526 17.2202 5.70526 16.875V13.8843Z" fill="#1A1A1A"/>
</g>
</g>
</svg>
