<svg width="25" height="24" viewBox="0 0 25 24" fill="none" xmlns="http://www.w3.org/2000/svg">
<g id="icon_discord">
<path id="shape" fill-rule="evenodd" clip-rule="evenodd" d="M20.4498 5.14355C22.9909 8.73934 24.2458 12.7953 23.7767 17.4646C23.7747 17.4844 23.764 17.5025 23.7471 17.5144C21.8228 18.8743 19.9584 19.6997 18.1202 20.247C18.0908 20.2556 18.0591 20.2452 18.0411 20.2213C17.6165 19.6526 17.2306 19.053 16.8925 18.4234C16.8731 18.3863 16.8908 18.3416 16.9308 18.327C17.5436 18.1048 18.1264 17.8384 18.6869 17.5231C18.731 17.4982 18.7339 17.4373 18.6931 17.408C18.5741 17.323 18.4563 17.2337 18.3435 17.1444C18.3224 17.1279 18.294 17.1246 18.2701 17.1357C14.631 18.7531 10.6446 18.7531 6.96244 17.1357C6.93854 17.1254 6.91013 17.129 6.8896 17.1452C6.7771 17.2345 6.65897 17.323 6.54113 17.408C6.50035 17.4373 6.50372 17.4982 6.54816 17.5231C7.10869 17.8325 7.69144 18.1048 8.30344 18.3281C8.3431 18.3427 8.36194 18.3863 8.34225 18.4234C8.0115 19.0538 7.62563 19.6534 7.19307 20.2221C7.17422 20.2451 7.14329 20.2557 7.11404 20.247C5.28451 19.6997 3.4201 18.8743 1.4958 17.5144C1.47976 17.5025 1.46823 17.4836 1.46655 17.4638C1.07448 13.4249 1.87351 9.33539 4.79035 5.14274C4.79738 5.13164 4.80807 5.12298 4.82045 5.11784C6.25566 4.48389 7.79325 4.0175 9.40031 3.75114C9.42956 3.74681 9.45881 3.75981 9.474 3.78471C9.67256 4.12307 9.89953 4.55698 10.0531 4.91157C11.7471 4.66254 13.4675 4.66254 15.1969 4.91157C15.3504 4.56455 15.5695 4.12307 15.7672 3.78471C15.7817 3.75937 15.8114 3.74583 15.8409 3.75114C17.4488 4.01831 18.9864 4.4847 20.4205 5.11784C20.4332 5.12298 20.4436 5.13164 20.4498 5.14355ZM10.9144 12.823C10.9322 11.629 10.0277 10.641 8.89226 10.641C7.76614 10.641 6.87036 11.6203 6.87036 12.823C6.87036 14.0254 7.78386 15.0047 8.89226 15.0047C10.0187 15.0047 10.9144 14.0254 10.9144 12.823ZM18.3905 12.823C18.4082 11.629 17.5037 10.641 16.3686 10.641C15.2422 10.641 14.3464 11.6203 14.3464 12.823C14.3464 14.0254 15.2599 15.0047 16.3686 15.0047C17.5037 15.0047 18.3905 14.0254 18.3905 12.823Z" fill="#8F97A6"/>
</g>
</svg>
