<svg width="24" height="25" viewBox="0 0 24 25" fill="none" xmlns="http://www.w3.org/2000/svg">
<g id="icon_discord">
<path id="shape" fill-rule="evenodd" clip-rule="evenodd" d="M19.8262 5.854C22.3673 9.44979 23.6223 13.5057 23.1531 18.1751C23.1512 18.1948 23.1405 18.213 23.1236 18.2249C21.1993 19.5848 19.3349 20.4101 17.4966 20.9574C17.4673 20.966 17.4355 20.9557 17.4176 20.9317C16.9929 20.363 16.607 19.7634 16.269 19.1338C16.2496 19.0967 16.2673 19.0521 16.3072 19.0375C16.9201 18.8152 17.5028 18.5489 18.0634 18.2335C18.1075 18.2086 18.1103 18.1477 18.0695 18.1185C17.9506 18.0335 17.8327 17.9442 17.72 17.8548C17.6989 17.8383 17.6705 17.8351 17.6465 17.8462C14.0075 19.4635 10.021 19.4635 6.33891 17.8462C6.315 17.8359 6.28659 17.8394 6.26606 17.8557C6.15356 17.945 6.03544 18.0335 5.9176 18.1185C5.87681 18.1477 5.88019 18.2086 5.92463 18.2335C6.48516 18.5429 7.06791 18.8152 7.6799 19.0386C7.71956 19.0532 7.7384 19.0967 7.71872 19.1338C7.38797 19.7643 7.00209 20.3638 6.56953 20.9325C6.55069 20.9555 6.51975 20.9661 6.4905 20.9574C4.66097 20.4101 2.79657 19.5848 0.87226 18.2249C0.856229 18.213 0.844698 18.194 0.84301 18.1743C0.450948 14.1354 1.24998 10.0458 4.16682 5.85319C4.17385 5.84209 4.18454 5.83343 4.19691 5.82829C5.63213 5.19434 7.16972 4.72795 8.77678 4.46159C8.80603 4.45726 8.83528 4.47026 8.85047 4.49516C9.04903 4.83352 9.276 5.26742 9.42956 5.62202C11.1235 5.37299 12.8439 5.37299 14.5733 5.62202C14.7269 5.275 14.946 4.83352 15.1437 4.49516C15.1581 4.46982 15.1879 4.45628 15.2174 4.46159C16.8253 4.72876 18.3629 5.19515 19.797 5.82829C19.8096 5.83343 19.82 5.84209 19.8262 5.854ZM10.2909 13.5334C10.3086 12.3394 9.40413 11.3514 8.26873 11.3514C7.14261 11.3514 6.24683 12.3308 6.24683 13.5334C6.24683 14.7358 7.16032 15.7152 8.26873 15.7152C9.39513 15.7152 10.2909 14.7358 10.2909 13.5334ZM17.7669 13.5334C17.7846 12.3394 16.8801 11.3514 15.745 11.3514C14.6186 11.3514 13.7228 12.3308 13.7228 13.5334C13.7228 14.7358 14.6363 15.7152 15.745 15.7152C16.8801 15.7152 17.7669 14.7358 17.7669 13.5334Z" fill="#808080"/>
</g>
</svg>
