<svg width="20" height="20" viewBox="0 0 20 20" fill="none" xmlns="http://www.w3.org/2000/svg">
<g id="icon_discord">
<path id="shape" fill-rule="evenodd" clip-rule="evenodd" d="M16.5219 4.28629C18.6394 7.28278 19.6852 10.6627 19.2943 14.5538C19.2926 14.5703 19.2837 14.5854 19.2697 14.5954C17.6661 15.7286 16.1124 16.4164 14.5805 16.8725C14.5561 16.8796 14.5296 16.871 14.5147 16.8511C14.1608 16.3771 13.8392 15.8775 13.5575 15.3528C13.5413 15.3219 13.5561 15.2847 13.5894 15.2725C14.1001 15.0873 14.5857 14.8654 15.0528 14.6026C15.0896 14.5818 15.0919 14.5311 15.058 14.5067C14.9588 14.4359 14.8606 14.3614 14.7666 14.287C14.749 14.2732 14.7254 14.2705 14.7055 14.2798C11.6729 15.6276 8.35085 15.6276 5.28242 14.2798C5.2625 14.2712 5.23883 14.2741 5.22172 14.2877C5.12797 14.3621 5.02953 14.4359 4.93133 14.5067C4.89735 14.5311 4.90016 14.5818 4.93719 14.6026C5.4043 14.8604 5.88992 15.0873 6.39992 15.2734C6.43297 15.2856 6.44867 15.3219 6.43226 15.3528C6.15664 15.8782 5.83508 16.3778 5.47461 16.8517C5.45891 16.8709 5.43313 16.8797 5.40875 16.8725C3.88414 16.4164 2.33047 15.7286 0.726883 14.5954C0.713524 14.5854 0.703915 14.5696 0.702508 14.5532C0.37579 11.1874 1.04165 7.77949 3.47235 4.28562C3.47821 4.27637 3.48711 4.26915 3.49743 4.26486C4.69344 3.73658 5.97477 3.34792 7.31398 3.12595C7.33836 3.12234 7.36273 3.13317 7.37539 3.15392C7.54086 3.43589 7.73 3.79748 7.85796 4.09298C9.2696 3.88545 10.7033 3.88545 12.1444 4.09298C12.2724 3.8038 12.455 3.43589 12.6198 3.15392C12.6318 3.13281 12.6566 3.12152 12.6812 3.12595C14.0211 3.34859 15.3024 3.73725 16.4975 4.26486C16.508 4.26915 16.5167 4.27637 16.5219 4.28629ZM8.57576 10.6858C8.59053 9.69083 7.83678 8.86749 6.89061 8.86749C5.95217 8.86749 5.20569 9.68361 5.20569 10.6858C5.20569 11.6878 5.96694 12.5039 6.89061 12.5039C7.82928 12.5039 8.57576 11.6878 8.57576 10.6858ZM14.8058 10.6858C14.8205 9.69083 14.0668 8.86749 13.1209 8.86749C12.1822 8.86749 11.4357 9.68361 11.4357 10.6858C11.4357 11.6878 12.1969 12.5039 13.1209 12.5039C14.0668 12.5039 14.8058 11.6878 14.8058 10.6858Z" fill="#1A1A1A"/>
</g>
</svg>
