<svg width="65" height="64" viewBox="0 0 65 64" fill="none" xmlns="http://www.w3.org/2000/svg">
<g id="error">
<path id="icon" d="M32.4997 45.3334C33.2552 45.3334 33.8886 45.0778 34.3997 44.5667C34.9108 44.0556 35.1663 43.4223 35.1663 42.6667C35.1663 41.9112 34.9108 41.2778 34.3997 40.7667C33.8886 40.2556 33.2552 40 32.4997 40C31.7441 40 31.1108 40.2556 30.5997 40.7667C30.0886 41.2778 29.833 41.9112 29.833 42.6667C29.833 43.4223 30.0886 44.0556 30.5997 44.5667C31.1108 45.0778 31.7441 45.3334 32.4997 45.3334ZM29.833 34.6667H35.1663V18.6667H29.833V34.6667ZM32.4997 58.6667C28.8108 58.6667 25.3441 57.9667 22.0997 56.5667C18.8552 55.1667 16.033 53.2667 13.633 50.8667C11.233 48.4667 9.33301 45.6445 7.93301 42.4C6.53301 39.1556 5.83301 35.6889 5.83301 32C5.83301 28.3112 6.53301 24.8445 7.93301 21.6C9.33301 18.3556 11.233 15.5334 13.633 13.1334C16.033 10.7334 18.8552 8.83337 22.0997 7.43337C25.3441 6.03337 28.8108 5.33337 32.4997 5.33337C36.1886 5.33337 39.6552 6.03337 42.8997 7.43337C46.1441 8.83337 48.9663 10.7334 51.3663 13.1334C53.7663 15.5334 55.6663 18.3556 57.0663 21.6C58.4663 24.8445 59.1663 28.3112 59.1663 32C59.1663 35.6889 58.4663 39.1556 57.0663 42.4C55.6663 45.6445 53.7663 48.4667 51.3663 50.8667C48.9663 53.2667 46.1441 55.1667 42.8997 56.5667C39.6552 57.9667 36.1886 58.6667 32.4997 58.6667Z" fill="#F53F3F"/>
</g>
</svg>
