<svg width="24" height="24" viewBox="0 0 24 24" fill="none" xmlns="http://www.w3.org/2000/svg">
<path d="M22.913 14.7215L22.8991 14.7775C21.3727 20.7708 15.2871 24.4113 9.27751 22.913C3.25198 21.4105 -0.416171 15.306 1.08712 9.2799L1.08717 9.27972C2.58916 3.25236 8.69396 -0.415674 14.7202 1.0868L14.7202 1.08681C20.7479 2.5893 24.4159 8.69448 22.913 14.7215Z" fill="white" stroke="#DEE2E8" stroke-width="1.5"/>
<g clip-path="url(#clip0_246_3670)">
<path d="M11.9985 3.74957L11.8838 4.12554V15.0344L11.9985 15.1448L17.2468 12.1516L11.9985 3.74957Z" fill="#343434"/>
<path d="M11.9985 3.74957L6.75 12.1516L11.9985 15.1448V9.84996V3.74957Z" fill="#8C8C8C"/>
<path d="M11.9985 16.1035L11.9338 16.1796V20.0655L11.9985 20.2476L17.25 13.1119L11.9985 16.1035Z" fill="#3C3C3B"/>
<path d="M11.9985 20.2476V16.1035L6.75 13.1119L11.9985 20.2476Z" fill="#8C8C8C"/>
<path d="M11.9984 15.1448L17.2467 12.1516L11.9984 9.84998V15.1448Z" fill="#141414"/>
<path d="M6.75 12.1516L11.9985 15.1448V9.84998L6.75 12.1516Z" fill="#393939"/>
</g>
<defs>
<clipPath id="clip0_246_3670">
<rect width="10.5" height="16.4981" fill="white" transform="translate(6.75 3.74957)"/>
</clipPath>
</defs>
</svg>
