<svg xmlns="http://www.w3.org/2000/svg" width="65" height="64" viewBox="0 0 65 64" fill="none">
  <path fill-rule="evenodd" clip-rule="evenodd" d="M21.1865 10.8339C26.0834 8.21648 31.7363 7.37795 37.1822 8.46119C42.628 9.54443 47.5298 12.4824 51.0522 16.7746C54.5747 21.0667 56.5 26.4475 56.5 32C56.5 34.2091 54.7091 36 52.5 36C50.2908 36 48.5 34.2091 48.5 32C48.5 28.2983 47.2165 24.7112 44.8682 21.8497C42.5198 18.9883 39.252 17.0296 35.6214 16.3075C31.9909 15.5853 28.2222 16.1443 24.9577 17.8893C21.6931 19.6343 19.1345 22.4572 17.7179 25.8771C16.3014 29.297 16.1144 33.1023 17.189 36.6445C18.2635 40.1868 20.533 43.2469 23.6109 45.3035C26.6887 47.36 30.3844 48.2858 34.0683 47.9229C37.7521 47.5601 41.1962 45.9312 43.8137 43.3137L49.4706 48.9705C45.5443 52.8968 40.3782 55.3402 34.8524 55.8844C29.3266 56.4286 23.7831 55.0401 19.1663 51.9552C14.5496 48.8704 11.1453 44.2803 9.53344 38.9668C7.92162 33.6534 8.20204 27.9455 10.3269 22.8156C12.4518 17.6858 16.2896 13.4514 21.1865 10.8339Z" fill="url(#paint0_angular_48_330589)"/>
  <defs>
    <radialGradient id="paint0_angular_48_330589" cx="0" cy="0" r="1" gradientUnits="userSpaceOnUse" gradientTransform="translate(32.5 32) rotate(45) scale(21.2132)">
      <stop stop-color="#3888FF" stop-opacity="0"/>
      <stop offset="0.911458" stop-color="#3888FF"/>
    </radialGradient>
  </defs>
</svg>