<svg width="64" height="64" viewBox="0 0 64 64" fill="none" xmlns="http://www.w3.org/2000/svg">
<g id="Logo-Chain">
<circle id="Circle" cx="32" cy="32" r="32" fill="#266CD3"/>
<path id="Shape" fill-rule="evenodd" clip-rule="evenodd" d="M33.3205 20.6685C35.4938 20.6685 37.2555 18.9067 37.2555 16.7335C37.2555 14.5603 35.4938 12.7985 33.3205 12.7985C31.1473 12.7985 29.3856 14.5603 29.3856 16.7335C29.3856 18.9067 31.1473 20.6685 33.3205 20.6685ZM51.095 31.9982C51.095 36.4196 47.5107 40.0038 43.0893 40.0038C38.6679 40.0038 35.0837 36.4196 35.0837 31.9982C35.0837 27.5768 38.6679 23.9925 43.0893 23.9925C47.5107 23.9925 51.095 27.5768 51.095 31.9982ZM37.2557 47.2621C37.2557 49.4354 35.494 51.1971 33.3207 51.1971C31.1475 51.1971 29.3857 49.4354 29.3857 47.2621C29.3857 45.0889 31.1475 43.3272 33.3207 43.3272C35.494 43.3272 37.2557 45.0889 37.2557 47.2621ZM13.1703 20.9403C12.0169 23.9933 13.6452 27.4533 16.6982 28.6067C18.7335 29.353 20.9046 28.9459 22.465 27.6569C23.8897 26.6392 25.7215 26.3 27.4855 26.9784C28.6388 27.3855 29.5208 28.1318 30.1314 29.0816L30.1993 29.2173C30.4706 29.6244 30.8777 30.0314 31.4205 30.1671C32.6417 30.642 34.0664 29.9636 34.4735 28.7424C34.9484 27.5212 34.2699 26.0965 33.0487 25.6894C32.506 25.4859 31.9632 25.4859 31.4205 25.6894C30.3349 26.0286 29.1137 26.0286 27.9604 25.6215C26.2643 25.0109 25.1109 23.6541 24.636 22.0936L24.5682 21.9579C24.5682 21.8901 24.5682 21.8223 24.5003 21.8223V21.6866C24.0254 19.7869 22.7364 18.1586 20.7689 17.4802C17.7159 16.259 14.2558 17.8194 13.1703 20.9403ZM16.6982 35.3903C13.6452 36.5437 12.0169 40.0038 13.1703 43.0568C14.3236 46.1776 17.7159 47.738 20.7689 46.5168C22.7364 45.8384 24.0254 44.2101 24.5003 42.3105V42.1748C24.5682 42.1748 24.5682 42.1069 24.5682 42.0391L24.636 41.9034C25.1109 40.343 26.2643 38.9861 27.9604 38.3755C29.1137 37.9684 30.3349 37.9684 31.4205 38.3077C31.9632 38.5112 32.506 38.5112 33.0487 38.3077C34.2699 37.9006 34.9484 36.4758 34.4735 35.2546C34.0664 34.0334 32.6417 33.355 31.4205 33.8299C30.8777 33.9656 30.4706 34.3727 30.1993 34.7797L30.1314 34.9154C29.5208 35.8652 28.6388 36.6115 27.4855 37.0186C25.7215 37.6971 23.8897 37.3578 22.465 36.3402C20.9046 35.0511 18.7335 34.644 16.6982 35.3903Z" fill="white"/>
</g>
</svg>
