<svg width="54" height="17" viewBox="0 0 54 17" fill="none" xmlns="http://www.w3.org/2000/svg">
<g id="Group">
<path id="Vector" d="M10.5189 5.52128C9.08391 6.66926 8.86866 8.78586 10.0166 10.2208C11.1646 11.6558 13.2812 11.8711 14.7162 10.7231C16.1512 9.57509 16.3664 7.4585 15.2184 6.02352C14.0705 4.58855 11.9539 4.3733 10.5189 5.52128Z" fill="#266CD3"/>
<path id="Vector_2" d="M7.50538 13.2342C6.78789 13.8082 6.71614 14.8486 7.29013 15.5302C7.86412 16.2477 8.90448 16.3194 9.5861 15.7454C10.3036 15.1714 10.3753 14.1311 9.80134 13.4495C9.26323 12.732 8.22287 12.6602 7.50538 13.2342Z" fill="#266CD3"/>
<path id="Vector_3" d="M9.5861 3.04622C10.3036 2.47222 10.3753 1.43187 9.80134 0.750251C9.22735 0.032762 8.18699 -0.0389864 7.50538 0.535005C6.78789 1.109 6.71614 2.14935 7.29013 2.83097C7.86412 3.51258 8.90448 3.62021 9.5861 3.04622Z" fill="#266CD3"/>
<path id="Vector_4" d="M1.62214 6.7051C2.44725 7.02797 3.37999 6.8486 4.02573 6.31049C4.59972 5.87999 5.38896 5.73649 6.10644 6.02349C6.57281 6.20286 6.96743 6.52573 7.21855 6.88448L7.25443 6.95623C7.36205 7.1356 7.54142 7.2791 7.75667 7.35085C8.25891 7.53022 8.8329 7.2791 9.04815 6.77685C9.22752 6.27461 8.9764 5.70062 8.47416 5.48537C8.25891 5.41362 8.00779 5.41362 7.79254 5.48537C7.32618 5.62887 6.82393 5.62887 6.35757 5.4495C5.67595 5.19838 5.17371 4.62439 4.95846 3.97865L4.92259 3.9069C4.92259 3.87103 4.92259 3.87102 4.88671 3.83515V3.79928C4.70734 3.01004 4.13335 2.32842 3.34411 2.04143C2.05263 1.57506 0.653533 2.2208 0.151291 3.51228C-0.315077 4.80376 0.330663 6.23874 1.62214 6.7051Z" fill="#266CD3"/>
<path id="Vector_5" d="M7.79254 10.7947C7.79254 10.7588 7.79254 10.7588 7.79254 10.7947C8.00779 10.8665 8.25891 10.8665 8.47416 10.7947C8.9764 10.6153 9.2634 10.0413 9.04815 9.50323C8.86878 9.00099 8.29478 8.71399 7.75667 8.92924C7.54142 9.00099 7.36205 9.14449 7.25443 9.32386L7.21855 9.39561C6.96743 9.79023 6.57281 10.1131 6.10645 10.2566C5.38896 10.5077 4.59972 10.4001 4.02573 9.9696C3.37999 9.43148 2.48313 9.28798 1.62214 9.57498C0.330663 10.0413 -0.315077 11.4763 0.151291 12.7678C0.617658 14.0593 2.05263 14.705 3.34411 14.2387C4.16923 13.9517 4.70734 13.27 4.88671 12.4808V12.4449C4.88671 12.4091 4.88672 12.4091 4.92259 12.3732L4.95846 12.3014C5.17371 11.6557 5.64008 11.0817 6.35757 10.8306C6.82393 10.6153 7.32618 10.6153 7.79254 10.7947Z" fill="#266CD3"/>
<path id="Vector_6" d="M43.7743 0.140137H41.0837V16.1043H43.7743V0.140137Z" fill="#266CD3"/>
<path id="Vector_7" d="M51.8464 8.64238V5.9518H48.7254V4.37332C48.7254 3.51233 49.407 2.83072 50.268 2.79484H51.8106V0.427131V0.140137H50.2321C47.9002 0.140137 45.9989 2.04148 45.9989 4.37332V5.9518H44.4563V8.64238H45.9989V16.1401H48.6895V8.64238H51.8464Z" fill="#266CD3"/>
<path id="Vector_8" d="M53.317 13.4497H50.6265V16.1403H53.317V13.4497Z" fill="#266CD3"/>
<path id="Vector_9" d="M34.555 4.5166C33.12 4.5166 31.7926 5.05472 30.7881 5.91571V4.5166H28.7792V5.95158C27.7747 5.09059 26.4473 4.55248 25.0124 4.55248C21.8195 4.55248 19.2366 7.13543 19.2366 10.3283C19.2366 13.5211 21.8195 16.104 25.0124 16.104C26.4473 16.104 27.7747 15.5659 28.7792 14.7049V16.104H30.7881V14.7049C31.7926 15.5659 33.12 16.104 34.555 16.104C36.1693 16.104 37.6043 15.4583 38.6446 14.4179L37.1379 12.9112C36.528 13.4135 35.7747 13.7363 34.9137 13.7363C33.3711 13.7363 32.0796 12.7318 31.6491 11.3686H38.2141H39.972H40.2949C40.3666 11.0457 40.3666 10.7229 40.3666 10.3641C40.3666 7.13544 37.7836 4.5166 34.555 4.5166ZM25.3352 13.7722C23.4339 13.7722 21.8913 12.2296 21.8913 10.3283C21.8913 8.42691 23.4339 6.88431 25.3352 6.88431C27.2366 6.88431 28.7792 8.42691 28.7792 10.3283C28.7792 12.2296 27.2366 13.7722 25.3352 13.7722ZM31.6132 9.32378C32.0079 7.8888 33.3352 6.81257 34.9137 6.81257C36.4922 6.81257 37.8195 7.8888 38.2141 9.32378H31.6132Z" fill="#266CD3"/>
</g>
</svg>
