<svg width="24" height="24" viewBox="0 0 24 24" fill="none" xmlns="http://www.w3.org/2000/svg">
<g id="interactive/menu">
<g id="Union">
<path d="M2.55 5.85006C2.38431 5.85006 2.25 5.71575 2.25 5.55006V4.05006C2.25 3.88438 2.38431 3.75006 2.55 3.75006H21.45C21.6157 3.75006 21.75 3.88438 21.75 4.05006V5.55006C21.75 5.71575 21.6157 5.85006 21.45 5.85006H2.55ZM2.55 20.25C2.38431 20.25 2.25 20.1157 2.25 19.95V18.45C2.25 18.2843 2.38431 18.15 2.55 18.15H21.45C21.6157 18.15 21.75 18.2843 21.75 18.45V19.95C21.75 20.1157 21.6157 20.25 21.45 20.25H2.55ZM2.25 12.75C2.25 12.9157 2.38431 13.05 2.55 13.05H21.45C21.6157 13.05 21.75 12.9157 21.75 12.75V11.25C21.75 11.0844 21.6157 10.95 21.45 10.95H2.55C2.38431 10.95 2.25 11.0844 2.25 11.25V12.75Z" fill="#127FFF"/>
</g>
</g>
</svg>
