<svg width="22" height="22" viewBox="0 0 22 22" fill="none" xmlns="http://www.w3.org/2000/svg">
<g id="question-filled">
<g id="Subtract">
<path d="M20.625 11C20.625 16.3157 16.3157 20.625 11 20.625C5.68426 20.625 1.375 16.3157 1.375 11C1.375 5.68426 5.68426 1.375 11 1.375C16.3157 1.375 20.625 5.68426 20.625 11ZM12.3494 14.9406C12.3494 14.2571 11.7954 13.7031 11.1119 13.7031C10.4285 13.7031 9.87442 14.2571 9.87442 14.9406C9.87442 15.624 10.4285 16.1781 11.1119 16.1781C11.7954 16.1781 12.3494 15.624 12.3494 14.9406ZM9.82338 8.4462C9.94702 7.91065 10.4269 7.51139 11 7.51139C11.6669 7.51139 12.2076 8.05203 12.2076 8.71894C12.2076 9.10414 12.0282 9.44696 11.7449 9.66947C11.444 9.9059 11.0574 10.2206 10.7473 10.6019C10.4334 10.9878 10.1406 11.5112 10.1406 12.1609V12.3968C10.1406 12.5487 10.2638 12.6718 10.4156 12.6718H11.5844C11.7363 12.6718 11.8594 12.5487 11.8594 12.3968V12.1609C11.8594 12.0512 11.9059 11.9013 12.0806 11.6865C12.2591 11.4671 12.5105 11.2537 12.8067 11.021C13.4869 10.4867 13.9263 9.65391 13.9263 8.71894C13.9263 7.10279 12.6162 5.79264 11 5.79264C9.4765 5.79264 8.22492 6.95688 8.08643 8.44421C8.07235 8.59543 8.19682 8.71894 8.3487 8.71894H9.51745C9.66933 8.71894 9.78922 8.59419 9.82338 8.4462Z" fill="#808080"/>
</g>
</g>
</svg>
