<svg width="16" height="16" viewBox="0 0 16 16" fill="none" xmlns="http://www.w3.org/2000/svg">
<path d="M11.25 7C11.25 4.65279 9.34721 2.75 7 2.75C4.65279 2.75 2.75 4.65279 2.75 7C2.75 9.34721 4.65279 11.25 7 11.25C9.34721 11.25 11.25 9.34721 11.25 7ZM10.4221 11.306C9.48285 12.0534 8.29357 12.5 7 12.5C3.96243 12.5 1.5 10.0376 1.5 7C1.5 3.96243 3.96243 1.5 7 1.5C10.0376 1.5 12.5 3.96243 12.5 7C12.5 8.29362 12.0534 9.48293 11.3059 10.4222L14.5327 13.6489C14.6108 13.727 14.6108 13.8536 14.5327 13.9318L13.9317 14.5328C13.8536 14.6109 13.7269 14.6109 13.6488 14.5328L10.4221 11.306Z" fill="#55585E"/>
</svg>
