<svg width="20" height="20" viewBox="0 0 20 20" fill="none" xmlns="http://www.w3.org/2000/svg">
<g id="telegram-mono" clip-path="url(#clip0_246_7443)">
<path id="Vector" fill-rule="evenodd" clip-rule="evenodd" d="M1.3749 9.63524C6.74359 7.29619 10.3236 5.75414 12.1148 5.0091C17.2292 2.88186 18.2919 2.51233 18.9846 2.50013C19.1369 2.49745 19.4776 2.5352 19.6982 2.71424C19.8845 2.86542 19.9358 3.06964 19.9603 3.21298C19.9848 3.35631 20.0154 3.68283 19.9911 3.93796C19.714 6.84999 18.5147 13.9167 17.9046 17.1783C17.6465 18.5583 17.1382 19.0211 16.6461 19.0664C15.5766 19.1648 14.7645 18.3596 13.7287 17.6806C12.1078 16.6181 11.1921 15.9567 9.61879 14.9199C7.80053 13.7217 8.97923 13.0631 10.0155 11.9869C10.2866 11.7052 14.9987 7.4192 15.0899 7.03039C15.1013 6.98177 15.1119 6.80051 15.0042 6.7048C14.8965 6.60909 14.7376 6.64182 14.6229 6.66785C14.4604 6.70474 11.871 8.41621 6.85486 11.8022C6.11988 12.3069 5.45416 12.5528 4.8577 12.54C4.20015 12.5257 2.93528 12.1682 1.99498 11.8625C0.84166 11.4876 -0.074973 11.2894 0.00484519 10.6527C0.0464194 10.3211 0.503103 9.98192 1.3749 9.63524Z" fill="#1A1A1A"/>
</g>
<defs>
<clipPath id="clip0_246_7443">
<rect width="20" height="20" fill="white"/>
</clipPath>
</defs>
</svg>
