<svg width="25" height="25" viewBox="0 0 25 25" fill="none" xmlns="http://www.w3.org/2000/svg">
<g id="telegram-mono" clip-path="url(#clip0_171_3543)">
<path id="Vector" fill-rule="evenodd" clip-rule="evenodd" d="M2.02658 12.2727C8.46902 9.46588 12.765 7.61542 14.9145 6.72137C21.0517 4.16868 22.327 3.72525 23.1582 3.71061C23.341 3.70738 23.7498 3.75269 24.0146 3.96754C24.2381 4.14896 24.2997 4.39402 24.3291 4.56602C24.3585 4.73802 24.3952 5.12984 24.366 5.436C24.0335 8.93044 22.5944 17.4105 21.8623 21.3244C21.5525 22.9805 20.9425 23.5357 20.352 23.5901C19.0686 23.7082 18.0941 22.7419 16.8511 21.9271C14.9061 20.6521 13.8073 19.8585 11.9193 18.6143C9.73735 17.1765 11.1518 16.3862 12.3952 15.0947C12.7207 14.7567 18.3752 9.61349 18.4846 9.14692C18.4983 9.08857 18.511 8.87106 18.3818 8.75621C18.2526 8.64135 18.0618 8.68063 17.9242 8.71187C17.7291 8.75614 14.6219 10.8099 8.60255 14.8731C7.72057 15.4788 6.9217 15.7739 6.20595 15.7584C5.41688 15.7413 3.89904 15.3122 2.77068 14.9455C1.3867 14.4956 0.286741 14.2577 0.382523 13.4937C0.432412 13.0957 0.980432 12.6888 2.02658 12.2727Z" fill="#808080"/>
</g>
<defs>
<clipPath id="clip0_171_3543">
<rect width="24" height="24" fill="white" transform="translate(0.376709 0.710449)"/>
</clipPath>
</defs>
</svg>
