<svg width="24" height="24" viewBox="0 0 24 24" fill="none" xmlns="http://www.w3.org/2000/svg">
<g clip-path="url(#clip0_11959_13349)">
<g clip-path="url(#clip1_11959_13349)">
<path d="M12 24C18.6274 24 24 18.6274 24 12C24 5.37258 18.6274 0 12 0C5.37258 0 0 5.37258 0 12C0 18.6274 5.37258 24 12 24Z" fill="#0088CC"/>
<path fill-rule="evenodd" clip-rule="evenodd" d="M8.65714 7.92859H15.3857C15.6429 7.92859 15.8571 7.97145 16.1143 8.10002C16.4143 8.22859 16.5857 8.44287 16.6714 8.6143C16.6714 8.6143 16.6714 8.65716 16.7143 8.65716C16.8429 8.87145 16.9286 9.12859 16.9286 9.42859C16.9286 9.68573 16.8857 9.94287 16.7143 10.2L12.4714 17.4857C12.3857 17.6572 12.2143 17.7429 12 17.7429C11.8286 17.7429 11.6571 17.6572 11.5286 17.4857L7.37143 10.2C7.28572 10.0286 7.11429 9.8143 7.11429 9.47145C7.07143 9.17145 7.15714 8.9143 7.28571 8.65716C7.41429 8.40002 7.62857 8.18573 7.92857 8.10002C8.18571 7.92859 8.48572 7.92859 8.65714 7.92859ZM11.4857 8.95716H8.65714C8.48572 8.95716 8.4 8.95716 8.35714 9.00002C8.27143 9.04287 8.22857 9.08573 8.18571 9.17145C8.14286 9.2143 8.14286 9.30002 8.14286 9.38573C8.14286 9.42859 8.18571 9.47145 8.27143 9.64287L11.4857 15.2143V8.95716ZM12.5143 8.95716V15.2572L15.7714 9.64287C15.8143 9.55716 15.8143 9.47145 15.8143 9.38573C15.8143 9.30002 15.8143 9.2143 15.7714 9.17145C15.7286 9.12859 15.7286 9.08573 15.6857 9.08573L15.6429 9.04287C15.5571 9.00002 15.4714 9.00002 15.3429 9.00002H12.5143V8.95716Z" fill="white"/>
</g>
</g>
<defs>
<clipPath id="clip0_11959_13349">
<rect width="24" height="24" fill="white"/>
</clipPath>
<clipPath id="clip1_11959_13349">
<rect width="24" height="24" fill="white"/>
</clipPath>
</defs>
</svg>
