<svg xmlns="http://www.w3.org/2000/svg" width="20" height="20" viewBox="0 0 20 20" fill="none">
  <mask id="mask0_246_7425" style="mask-type:alpha" maskUnits="userSpaceOnUse" x="0" y="0" width="20" height="20">
    <rect width="20" height="20" fill="#D9D9D9"/>
  </mask>
  <g mask="url(#mask0_246_7425)">
    <path d="M9.91668 18.3332L13.7083 8.33317H15.4583L19.25 18.3332H17.5L16.6042 15.7915H12.5625L11.6667 18.3332H9.91668ZM3.33334 15.8332L2.16668 14.6665L6.37501 10.4582C5.8889 9.97206 5.44793 9.4165 5.05209 8.7915C4.65626 8.1665 4.29168 7.45817 3.95834 6.6665H5.70834C5.98612 7.20817 6.2639 7.68039 6.54168 8.08317C6.81945 8.48595 7.15279 8.88873 7.54168 9.2915C8.00001 8.83317 8.4757 8.19081 8.96876 7.36442C9.46181 6.53803 9.83334 5.74984 10.0833 4.99984H0.833344V3.33317H6.66668V1.6665H8.33334V3.33317H14.1667V4.99984H11.75C11.4583 5.99984 11.0208 7.02762 10.4375 8.08317C9.85418 9.13873 9.27779 9.94428 8.70834 10.4998L10.7083 12.5415L10.0833 14.2498L7.54168 11.6457L3.33334 15.8332ZM13.0833 14.3332H16.0833L14.5833 10.0832L13.0833 14.3332Z" fill="#1A1A1A"/>
  </g>
</svg>