<svg width="16" height="16" viewBox="0 0 16 16" fill="none" xmlns="http://www.w3.org/2000/svg">
<g id="translate">
<mask id="mask0_246_5425" style="mask-type:alpha" maskUnits="userSpaceOnUse" x="0" y="0" width="16" height="16">
<rect id="Bounding box" width="16" height="16" fill="#D9D9D9"/>
</mask>
<g mask="url(#mask0_246_5425)">
<path id="translate_2" d="M7.93329 14.6667L10.9666 6.66668H12.3666L15.4 14.6667H14L13.2833 12.6333H10.05L9.33329 14.6667H7.93329ZM2.66663 12.6667L1.73329 11.7333L5.09996 8.36668C4.71107 7.97779 4.35829 7.53334 4.04163 7.03334C3.72496 6.53334 3.43329 5.96668 3.16663 5.33334H4.56663C4.78885 5.76668 5.01107 6.14445 5.23329 6.46668C5.45551 6.7889 5.72218 7.11112 6.03329 7.43334C6.39996 7.06668 6.78051 6.55279 7.17496 5.89168C7.5694 5.23057 7.86663 4.60001 8.06663 4.00001H0.666626V2.66668H5.33329V1.33334H6.66663V2.66668H11.3333V4.00001H9.39996C9.16663 4.80001 8.81663 5.62223 8.34996 6.46668C7.88329 7.31112 7.42218 7.95557 6.96663 8.40001L8.56663 10.0333L8.06663 11.4L6.03329 9.31668L2.66663 12.6667ZM10.4666 11.4667H12.8666L11.6666 8.06668L10.4666 11.4667Z" fill="#127FFF"/>
</g>
</g>
</svg>
