<svg width="48" height="48" viewBox="0 0 48 48" fill="none" xmlns="http://www.w3.org/2000/svg">
<path d="M45 24C45 35.598 35.598 45 24 45C12.402 45 3 35.598 3 24C3 12.402 12.402 3 24 3C35.598 3 45 12.402 45 24Z" fill="#127FFF"/>
<mask id="mask0_952_28189" style="mask-type:alpha" maskUnits="userSpaceOnUse" x="10" y="10" width="28" height="28">
<rect x="10.5" y="10.5" width="27" height="27" fill="#D9D9D9"/>
</mask>
<g mask="url(#mask0_952_28189)">
<path d="M16.125 31.875V16.125V28.8938V26.5031V31.875ZM16.125 34.125C15.5062 34.125 14.9766 33.9047 14.5359 33.4641C14.0953 33.0234 13.875 32.4937 13.875 31.875V16.125C13.875 15.5063 14.0953 14.9766 14.5359 14.5359C14.9766 14.0953 15.5062 13.875 16.125 13.875H31.875C32.4937 13.875 33.0234 14.0953 33.4641 14.5359C33.9047 14.9766 34.125 15.5063 34.125 16.125V25.125H31.875V16.125H16.125V31.875H24V34.125H16.125ZM30.0187 35.25L26.025 31.2563L27.6281 29.6813L30.0187 32.0719L34.8 27.2906L36.375 28.8938L30.0187 35.25ZM19.5 25.125C19.8187 25.125 20.0859 25.0172 20.3016 24.8016C20.5172 24.5859 20.625 24.3188 20.625 24C20.625 23.6812 20.5172 23.4141 20.3016 23.1984C20.0859 22.9828 19.8187 22.875 19.5 22.875C19.1812 22.875 18.9141 22.9828 18.6984 23.1984C18.4828 23.4141 18.375 23.6812 18.375 24C18.375 24.3188 18.4828 24.5859 18.6984 24.8016C18.9141 25.0172 19.1812 25.125 19.5 25.125ZM19.5 20.625C19.8187 20.625 20.0859 20.5172 20.3016 20.3016C20.5172 20.0859 20.625 19.8187 20.625 19.5C20.625 19.1813 20.5172 18.9141 20.3016 18.6984C20.0859 18.4828 19.8187 18.375 19.5 18.375C19.1812 18.375 18.9141 18.4828 18.6984 18.6984C18.4828 18.9141 18.375 19.1813 18.375 19.5C18.375 19.8187 18.4828 20.0859 18.6984 20.3016C18.9141 20.5172 19.1812 20.625 19.5 20.625ZM22.875 25.125H29.625V22.875H22.875V25.125ZM22.875 20.625H29.625V18.375H22.875V20.625Z" fill="white"/>
</g>
</svg>
